<svg xmlns="http://www.w3.org/2000/svg" version="1.1" xmlns:xlink="http://www.w3.org/1999/xlink" xmlns:svgjs="http://svgjs.com/svgjs" width="1200" height="560" preserveAspectRatio="none" viewBox="0 0 1200 560"><g mask="url(&quot;#SvgjsMask1074&quot;)" fill="none"><rect width="1200" height="560" x="0" y="0" fill="url(#SvgjsLinearGradient1075)"></rect><path d="M670 40L669 -120" stroke-width="8" stroke="url(#SvgjsLinearGradient1076)" stroke-linecap="round" class="Up"></path><path d="M1032 251L1031 454" stroke-width="6" stroke="url(#SvgjsLinearGradient1077)" stroke-linecap="round" class="Up"></path><path d="M945 479L944 148" stroke-width="6" stroke="url(#SvgjsLinearGradient1076)" stroke-linecap="round" class="Up"></path><path d="M730 42L729 -125" stroke-width="6" stroke="url(#SvgjsLinearGradient1077)" stroke-linecap="round" class="Up"></path><path d="M1093 504L1092 172" stroke-width="8" stroke="url(#SvgjsLinearGradient1076)" stroke-linecap="round" class="Up"></path><path d="M843 143L842 -44" stroke-width="8" stroke="url(#SvgjsLinearGradient1078)" stroke-linecap="round" class="Down"></path><path d="M334 259L333 532" stroke-width="8" stroke="url(#SvgjsLinearGradient1079)" stroke-linecap="round" class="Down"></path><path d="M125 538L124 821" stroke-width="6" stroke="url(#SvgjsLinearGradient1079)" stroke-linecap="round" class="Down"></path><path d="M385 95L384 -145" stroke-width="6" stroke="url(#SvgjsLinearGradient1076)" stroke-linecap="round" class="Up"></path><path d="M1183 242L1182 -114" stroke-width="8" stroke="url(#SvgjsLinearGradient1077)" stroke-linecap="round" class="Up"></path><path d="M689 220L688 -161" stroke-width="10" stroke="url(#SvgjsLinearGradient1077)" stroke-linecap="round" class="Up"></path><path d="M522 277L521 118" stroke-width="10" stroke="url(#SvgjsLinearGradient1077)" stroke-linecap="round" class="Up"></path><path d="M1173 507L1172 98" stroke-width="10" stroke="url(#SvgjsLinearGradient1078)" stroke-linecap="round" class="Down"></path><path d="M581 511L580 225" stroke-width="6" stroke="url(#SvgjsLinearGradient1076)" stroke-linecap="round" class="Up"></path><path d="M236 504L235 863" stroke-width="8" stroke="url(#SvgjsLinearGradient1076)" stroke-linecap="round" class="Up"></path><path d="M326 282L325 134" stroke-width="10" stroke="url(#SvgjsLinearGradient1078)" stroke-linecap="round" class="Down"></path><path d="M1153 162L1152 420" stroke-width="8" stroke="url(#SvgjsLinearGradient1078)" stroke-linecap="round" class="Down"></path><path d="M851 215L850 398" stroke-width="6" stroke="url(#SvgjsLinearGradient1077)" stroke-linecap="round" class="Up"></path><path d="M663 424L662 10" stroke-width="6" stroke="url(#SvgjsLinearGradient1077)" stroke-linecap="round" class="Up"></path><path d="M5 348L4 754" stroke-width="6" stroke="url(#SvgjsLinearGradient1079)" stroke-linecap="round" class="Down"></path><path d="M875 322L874 99" stroke-width="10" stroke="url(#SvgjsLinearGradient1078)" stroke-linecap="round" class="Down"></path><path d="M261 19L260 -278" stroke-width="10" stroke="url(#SvgjsLinearGradient1076)" stroke-linecap="round" class="Up"></path><path d="M1050 373L1049 766" stroke-width="8" stroke="url(#SvgjsLinearGradient1079)" stroke-linecap="round" class="Down"></path><path d="M748 399L747 610" stroke-width="6" stroke="url(#SvgjsLinearGradient1078)" stroke-linecap="round" class="Down"></path><path d="M1197 490L1196 188" stroke-width="10" stroke="url(#SvgjsLinearGradient1077)" stroke-linecap="round" class="Up"></path><path d="M1014 432L1013 580" stroke-width="8" stroke="url(#SvgjsLinearGradient1079)" stroke-linecap="round" class="Down"></path><path d="M2 396L1 75" stroke-width="10" stroke="url(#SvgjsLinearGradient1077)" stroke-linecap="round" class="Up"></path><path d="M211 82L210 442" stroke-width="10" stroke="url(#SvgjsLinearGradient1077)" stroke-linecap="round" class="Up"></path><path d="M1019 213L1018 531" stroke-width="10" stroke="url(#SvgjsLinearGradient1079)" stroke-linecap="round" class="Down"></path><path d="M875 463L874 864" stroke-width="6" stroke="url(#SvgjsLinearGradient1077)" stroke-linecap="round" class="Up"></path></g><defs><mask id="SvgjsMask1074"><rect width="1200" height="560" fill="#ffffff"></rect></mask><linearGradient x1="13.33%" y1="128.57%" x2="86.67%" y2="-28.57%" gradientUnits="userSpaceOnUse" id="SvgjsLinearGradient1075"><stop stop-color="#0e2a47" offset="0"></stop><stop stop-color="rgba(148, 215, 252, 1)" offset="1"></stop></linearGradient><linearGradient x1="0%" y1="100%" x2="0%" y2="0%" id="SvgjsLinearGradient1076"><stop stop-color="rgba(110, 190, 232, 0)" offset="0"></stop><stop stop-color="rgba(110, 190, 232, 1)" offset="1"></stop></linearGradient><linearGradient x1="0%" y1="100%" x2="0%" y2="0%" id="SvgjsLinearGradient1077"><stop stop-color="rgba(209, 231, 255, 0)" offset="0"></stop><stop stop-color="rgba(209, 231, 255, 1)" offset="1"></stop></linearGradient><linearGradient x1="0%" y1="0%" x2="0%" y2="100%" id="SvgjsLinearGradient1078"><stop stop-color="rgba(110, 190, 232, 0)" offset="0"></stop><stop stop-color="rgba(110, 190, 232, 1)" offset="1"></stop></linearGradient><linearGradient x1="0%" y1="0%" x2="0%" y2="100%" id="SvgjsLinearGradient1079"><stop stop-color="rgba(209, 231, 255, 0)" offset="0"></stop><stop stop-color="rgba(209, 231, 255, 1)" offset="1"></stop></linearGradient></defs></svg>